<svg width="142" height="142" viewBox="0 0 142 142" fill="none" xmlns="http://www.w3.org/2000/svg">
    <rect width="142" height="142" rx="28" fill="#030619"/>
    <path d="M29.8662 24.5H47.4668C50.4305 24.5001 52.8328 26.9025 52.833 29.8662V47.4668C52.8329 50.4306 50.4306 52.8329 47.4668 52.833H29.8662C26.9025 52.8328 24.5001 50.4305 24.5 47.4668V29.8662C24.5002 26.9026 26.9026 24.5002 29.8662 24.5Z" fill="url(#paint0_linear_66_77)" stroke="url(#paint1_linear_66_77)"/>
    <path d="M62.1996 24.5H79.8001C82.7639 24.5001 85.1661 26.9025 85.1664 29.8662V47.4668C85.1663 50.4306 82.764 52.8329 79.8001 52.833H62.1996C59.2359 52.8328 56.8334 50.4305 56.8333 47.4668V29.8662C56.8336 26.9026 59.236 24.5002 62.1996 24.5Z" fill="url(#paint2_linear_66_77)" stroke="url(#paint3_linear_66_77)"/>
    <path d="M94.5329 24.5H112.133C115.097 24.5001 117.499 26.9025 117.5 29.8662V47.4668C117.5 50.4306 115.097 52.8329 112.133 52.833H94.5329C91.5692 52.8328 89.1667 50.4305 89.1667 47.4668V29.8662C89.1669 26.9026 91.5693 24.5002 94.5329 24.5Z" fill="url(#paint4_linear_66_77)" stroke="url(#paint5_linear_66_77)"/>
    <path d="M29.8662 56.8333H47.4668C50.4305 56.8334 52.8328 59.2359 52.833 62.1996V79.8001C52.8329 82.764 50.4306 85.1663 47.4668 85.1664H29.8662C26.9025 85.1661 24.5001 82.7639 24.5 79.8001V62.1996C24.5002 59.236 26.9026 56.8336 29.8662 56.8333Z" fill="#600015" stroke="url(#paint6_linear_66_77)"/>
    <rect x="56.8333" y="56.8333" width="28.3333" height="28.3333" rx="6.5" fill="#FF0000" stroke="url(#paint7_linear_66_77)"/>
    <g filter="url(#filter0_d_66_77)">
        <path d="M112.133 56.3333H94.5333C91.2933 56.3333 88.6667 58.9599 88.6667 62.2V79.8C88.6667 83.0401 91.2933 85.6667 94.5333 85.6667H112.133C115.373 85.6667 118 83.0401 118 79.8V62.2C118 58.9599 115.373 56.3333 112.133 56.3333Z" fill="#600015"/>
        <path d="M94.5329 56.8333H112.133C115.097 56.8334 117.499 59.2359 117.5 62.1996V79.8001C117.5 82.764 115.097 85.1663 112.133 85.1664H94.5329C91.5692 85.1661 89.1667 82.7639 89.1667 79.8001V62.1996C89.1669 59.236 91.5693 56.8336 94.5329 56.8333Z" stroke="url(#paint8_linear_66_77)"/>
    </g>
    <path d="M29.8662 89.1667H47.4668C50.4305 89.1668 52.8328 91.5692 52.833 94.5329V112.133C52.8329 115.097 50.4306 117.5 47.4668 117.5H29.8662C26.9025 117.499 24.5001 115.097 24.5 112.133V94.5329C24.5002 91.5693 26.9026 89.1669 29.8662 89.1667Z" fill="url(#paint9_linear_66_77)" stroke="url(#paint10_linear_66_77)"/>
    <path d="M62.1996 89.1667H79.8001C82.7639 89.1668 85.1661 91.5692 85.1664 94.5329V112.133C85.1663 115.097 82.764 117.5 79.8001 117.5H62.1996C59.2359 117.499 56.8334 115.097 56.8333 112.133V94.5329C56.8336 91.5693 59.236 89.1669 62.1996 89.1667Z" fill="url(#paint11_linear_66_77)" stroke="url(#paint12_linear_66_77)"/>
    <path d="M94.5329 89.1667H112.133C115.097 89.1668 117.499 91.5692 117.5 94.5329V112.133C117.5 115.097 115.097 117.5 112.133 117.5H94.5329C91.5692 117.499 89.1667 115.097 89.1667 112.133V94.5329C89.1669 91.5693 91.5693 89.1669 94.5329 89.1667Z" fill="url(#paint13_linear_66_77)" stroke="url(#paint14_linear_66_77)"/>
    <defs>
        <filter id="filter0_d_66_77" x="84.6667" y="56.3333" width="37.3333" height="37.3333" filterUnits="userSpaceOnUse" color-interpolation-filters="sRGB">
            <feFlood flood-opacity="0" result="BackgroundImageFix"/>
            <feColorMatrix in="SourceAlpha" type="matrix" values="0 0 0 0 0 0 0 0 0 0 0 0 0 0 0 0 0 0 127 0" result="hardAlpha"/>
            <feOffset dy="4"/>
            <feGaussianBlur stdDeviation="2"/>
            <feComposite in2="hardAlpha" operator="out"/>
            <feColorMatrix type="matrix" values="0 0 0 0 0 0 0 0 0 0 0 0 0 0 0 0 0 0 0.25 0"/>
            <feBlend mode="normal" in2="BackgroundImageFix" result="effect1_dropShadow_66_77"/>
            <feBlend mode="normal" in="SourceGraphic" in2="effect1_dropShadow_66_77" result="shape"/>
        </filter>
        <linearGradient id="paint0_linear_66_77" x1="24" y1="24" x2="53.3333" y2="53.3333" gradientUnits="userSpaceOnUse">
            <stop stop-color="#350712"/>
            <stop offset="1" stop-color="#37010E"/>
        </linearGradient>
        <linearGradient id="paint1_linear_66_77" x1="28.125" y1="47.8333" x2="53.3333" y2="24" gradientUnits="userSpaceOnUse">
            <stop stop-color="#350000"/>
            <stop offset="1" stop-color="#AF0D0D"/>
        </linearGradient>
        <linearGradient id="paint2_linear_66_77" x1="71" y1="24" x2="71" y2="53.3333" gradientUnits="userSpaceOnUse">
            <stop stop-color="#53010D"/>
            <stop offset="1" stop-color="#5B000D"/>
        </linearGradient>
        <linearGradient id="paint3_linear_66_77" x1="57.7083" y1="51.9583" x2="85.6667" y2="24" gradientUnits="userSpaceOnUse">
            <stop stop-color="#690808"/>
            <stop offset="1" stop-color="#C90000"/>
        </linearGradient>
        <linearGradient id="paint4_linear_66_77" x1="88.6667" y1="24" x2="118" y2="53.3333" gradientUnits="userSpaceOnUse">
            <stop stop-color="#310913"/>
            <stop offset="1" stop-color="#37010E"/>
        </linearGradient>
        <linearGradient id="paint5_linear_66_77" x1="92.7917" y1="47.8333" x2="118" y2="24" gradientUnits="userSpaceOnUse">
            <stop stop-color="#350000"/>
            <stop offset="1" stop-color="#AF0D0D"/>
        </linearGradient>
        <linearGradient id="paint6_linear_66_77" x1="28.125" y1="80.1667" x2="53.3333" y2="56.3333" gradientUnits="userSpaceOnUse">
            <stop stop-color="#350000"/>
            <stop offset="1" stop-color="#AF0D0D"/>
        </linearGradient>
        <linearGradient id="paint7_linear_66_77" x1="71" y1="56.3333" x2="71" y2="85.6667" gradientUnits="userSpaceOnUse">
            <stop stop-color="#F96161"/>
            <stop offset="1" stop-color="#FF0000"/>
        </linearGradient>
        <linearGradient id="paint8_linear_66_77" x1="90.0417" y1="84.2917" x2="118" y2="56.3333" gradientUnits="userSpaceOnUse">
            <stop stop-color="#690808"/>
            <stop offset="1" stop-color="#C90000"/>
        </linearGradient>
        <linearGradient id="paint9_linear_66_77" x1="24" y1="88.6667" x2="53.3333" y2="118" gradientUnits="userSpaceOnUse">
            <stop stop-color="#600419"/>
            <stop offset="1" stop-color="#0F0608"/>
        </linearGradient>
        <linearGradient id="paint10_linear_66_77" x1="28.125" y1="112.5" x2="53.3333" y2="88.6667" gradientUnits="userSpaceOnUse">
            <stop stop-color="#350000"/>
            <stop offset="1" stop-color="#AF0D0D"/>
        </linearGradient>
        <linearGradient id="paint11_linear_66_77" x1="71" y1="88.6667" x2="71" y2="118" gradientUnits="userSpaceOnUse">
            <stop stop-color="#53010D"/>
            <stop offset="1" stop-color="#5B000D"/>
        </linearGradient>
        <linearGradient id="paint12_linear_66_77" x1="57.7083" y1="116.625" x2="85.6667" y2="88.6667" gradientUnits="userSpaceOnUse">
            <stop stop-color="#690808"/>
            <stop offset="1" stop-color="#C90000"/>
        </linearGradient>
        <linearGradient id="paint13_linear_66_77" x1="88.6667" y1="88.6667" x2="118" y2="118" gradientUnits="userSpaceOnUse">
            <stop stop-color="#600419"/>
            <stop offset="1" stop-color="#0F0608"/>
        </linearGradient>
        <linearGradient id="paint14_linear_66_77" x1="92.7917" y1="112.5" x2="118" y2="88.6667" gradientUnits="userSpaceOnUse">
            <stop stop-color="#350000"/>
            <stop offset="1" stop-color="#AF0D0D"/>
        </linearGradient>
    </defs>
</svg>
